<?xml version="1.0" encoding="UTF-8"?>
<svg version="1.1" viewBox="0 0 2000 2000" width="1280" height="1280" xmlns="http://www.w3.org/2000/svg">
<path transform="translate(0)" d="m0 0h2e3v2e3h-2e3z"/>
<path transform="translate(458,773)" d="m0 0h22l21 2 28 6 18 5 20 9 21 11 16 11 10 8 10 9 7 6v2h2l7 8 8 9 15 22 10 18 9 21 7 21 4 19 2 14 1 18v12l-1 21-4 26-4 15-11 28-11 21-12 18-11 14-9 10-13 13-11 9-16 11-15 9-28 13-20 6-26 6-14 2h-40l-21-3-26-6-15-5-20-9-20-11-14-10-14-11-15-14-10-11-13-17-10-16-10-19-8-20-6-22-5-26-1-9v-33l2-17 6-27 6-20 11-24 8-14 10-15 11-14 14-15 7-7 14-11 11-8 16-10 15-8 22-9 22-6 20-4z"/>
<path transform="translate(458,886)" d="m0 0h20l16 2 16 5 16 8 11 7 13 11 9 10 10 15 7 15 5 15 2 10 1 10v14l-4 22-5 14-10 19-11 14-9 9-14 10-19 10-16 5-13 2h-29l-16-3-13-5-16-8-10-7-10-9-7-7-7-10-9-15-6-14-4-20-1-7v-18l3-19 5-15 9-16 8-11 9-10 7-7 14-10 15-8 15-5z"/>
<path transform="translate(458,817)" d="m0 0h11l-1 5-12 23-12 22 13-1 3-3 12-23 9-17 3-6 11 2-1 5-12 22-9 17-1 3h12l3-2 11-23 10-19 11 3-2 5-10 19-9 17-2 3 14 1 8-16 10-19 3-6 8 1 2 4-8 16-12 23v2l8 4h3l14-28 7-13 4 1 5 3-3 9-14 27-3 5v3l10 6 8-16 10-19 2-6 5 1 5 4-2 6-12 24-7 12 1 4 6 6 3 1 1-5 14-27 6-12 4 2 4 4-3 9-8 16-8 15-3 8 6 10 2 1 2-6 12-22 8-17h4l5 6-4 10-19 37-2 3 1 6 5 10 8-16 15-29 4-7 3 1 3 7-1 7-12 23-12 22-4 8v8l3 13 10-19 15-29 7-15h2l4 9-1 7-20 40-7 12-13 26-4 16-7 16-10 18-9 12-9 13-13 26-12 22-12 23-5 4-3 1h-7l3-7 9-16 8-16 11-21v-3l-15 9-4 4-6 12-10 19-12 22-2 2-11 2 1-5 8-15 8-16 7-12 2-6-16 3-2 6-12 24-9 16-4 5h-8l-1-4 8-16 10-19 5-10-13 1-10 17-14 27-1 1-9-1-1-4 8-14 13-26 1-3h-13l-8 16-9 17-5 8-4 1-6-2 1-5 17-33 3-7-12-1-12 22-9 17-4 1-6-4 1-4 8-15 8-16 5-9-12-4-8 16-13 23-3 2-7-5 8-16 12-23 1-6-8-6-3 4-18 35-2 4-9-6 1-4 8-14 10-21 4-6-2-4-6-7-2 2-8 16-13 25-3 2-6-7 1-5 12-22 10-20v-5l-6-10-2 3-11 23-10 19-4 4-5-8-1-3 10-17 17-34-1-8-2-10-1-1-8 16-19 37-2 4-3-1-4-8 1-5 12-23 18-35 3-9 1-28-12 26-12 24-12 22-4 7h-2l-2-8v-7l13-26 7-12 26-52 10-18 15-30 9-16 21-42 6-8 10-5h3l-2 6-15 29-11 20-13 26 10-9 13-10 10-18 15-30 9-16 5-4 10-1-8 16-15 28-7 14 17-7 15-28 13-25zm0 69-18 3-15 5-15 8-11 8-10 9-7 7-8 11-9 15-6 15-3 15-1 8v18l4 24 6 15 8 14 7 10 9 10 7 7 10 7 12 7 17 7 12 3 7 1h29l17-3 16-6 15-8 11-8 10-9 8-9 9-14 9-19 4-16 2-13v-14l-2-15-4-15-8-18-9-14-11-13-10-9-14-9-16-8-16-5-16-2z" fill="#08D6F7"/>
<path transform="translate(458,773)" d="m0 0h22l21 2 28 6 18 5 20 9 21 11 16 11 10 8 10 9 7 6v2h2l7 8 8 9 15 22 10 18 9 21 7 21 4 19 2 14 1 18v12l-1 21-4 26-4 15-11 28-11 21-12 18-11 14-9 10-13 13-11 9-16 11-15 9-28 13-20 6-26 6-14 2h-40l-21-3-26-6-15-5-20-9-20-11-14-10-14-11-15-14-10-11-13-17-10-16-10-19-8-20-6-22-5-26-1-9v-33l2-17 6-27 6-20 11-24 8-14 10-15 11-14 14-15 7-7 14-11 11-8 16-10 15-8 22-9 22-6 20-4zm-19 14-25 6-25 8-12 5-20 11-20 14-13 11-9 8-7 8-12 15-10 15-10 18-8 18-6 19-5 21-2 14v44l1 6 11-1 8-2 1 9 7 27 8 20 12 23 12 17 15 16 9 9 14 11 18 12 22 11 16 6 24 6 24 3h31l7-1 1 15 1 3 10-1 24-6 21-7 16-8 15-8 17-12 13-11 22-22 13-18 9-15 8-16 8-20 7-28 3-19 1-13v-22l-1-11-1-3h-9l-9 1-6-27-8-21-12-25-8-12-10-13-9-10-13-13-13-10-15-10-19-10-21-8-19-5-16-3-9-1h-36l-6 1-3-18z" fill="#08D6F7"/>
<path transform="translate(817,1091)" d="m0 0h159l457 1 11 6 38 24 17 11 8 5 12 2h240l1-5 7-6h7l7 4 3 5v8l-2 5-5 4-8 1-8-4-3-6h-111l-138-1-10-5-15-10-19-12-24-15-9-5-397-1h-299l-2-4 1-1z" fill="#08D6F7"/>
<path transform="translate(801,788)" d="m0 0h854l1 5-851 1-5 2-64 64-4 5-1 3h2l1 7-4 6-5 4-5 1-9-3-5-8v-7l6-7 3-2h9l3 1 10-9 62-62z" fill="#08D6F7"/>
<path transform="translate(1169,900)" d="m0 0h10l6 5 7 15 11 29 10 25 4 4 1-75 1-2h13l1 5v91l-3 5-6 2h-10l-4-2-8-16-12-31-9-22-4-6-1 1-1 75-1 1h-12l-1-1-1-45v-48l2-6z" fill="#08D6F7"/>
<path transform="translate(1026,1102)" d="m0 0h8l10 4 22 14 36 23 5 3-1 2h-81l-10-4-47-30-15-10v-1z" fill="#08D6F7"/>
<path transform="translate(933,1102)" d="m0 0 10 2 10 7 24 15 26 16 8 5v1h-86l-11-6-19-12-17-11-23-15v-1z" fill="#08D6F7"/>
<path transform="translate(754,1102)" d="m0 0 87 1 16 10 18 11 19 12 13 8 4 3-10 1h-74l-7-3-24-15-41-26z" fill="#08D6F7"/>
<path transform="translate(1419,901)" d="m0 0h48l8 4 6 7 2 7v26l-4 9-5 4-3 2 5 10 10 16 5 9v6l-6 4h-5l-5-6-17-29-6-8-12-2-1-1v-9l5-2 18-1 5-1v-24l-1-7-35-1v89l-1 1h-12l-1-1-1-21v-64l1-15z" fill="#08D6F7"/>
<path transform="translate(442,953)" d="m0 0h46l8 3 5 4 3 7 1 7v22l-3 8-4 5-6 2 6 11 14 23 1 7-5 4-6 1-4-5-12-20-11-18-14-2v-11l5-1 22-1v-31l-1-1h-33l-1 88-2 1h-8l-4-1-1-10v-65l1-25z" fill="#08D6F7"/>
<path transform="translate(1255,901)" d="m0 0h51l8 4 5 5 3 6v73l-4 8-5 4-4 2-11 1h-19l-3-1v-12l26-1 3-1 1-9v-65h-38l-1 88-3 1h-10l-1-1-1-20v-70l1-10z" fill="#08D6F7"/>
<path transform="translate(1666,778)" d="m0 0h73l60 1 1 5v16l-1 1-133 1-2-3v-20z" fill="#08D6F7"/>
<path transform="translate(1345,901)" d="m0 0h54v12l-1 1h-41v77h44l1 1-1 11-14 1h-25l-18-1-2-2-1-4v-88l2-7z" fill="#08D6F7"/>
<path transform="translate(646,965)" d="m0 0h2l3 9-1 9-8 16-18 35-13 24-14 28-10 19-20 39-9 15-9 6-7 1 3-6 8-14 21-41 11-20 8-16 14-27 8-15 19-38 9-17z" fill="#08D6F7"/>
<path transform="translate(1054,901)" d="m0 0h54v12l-2 1h-39v70l-1 19-1 1h-11l-2-1v-101z" fill="#08D6F7"/>
<path transform="translate(373,844)" d="m0 0h3l-2 6-8 14-10 19-8 16-14 27-10 19-12 24-12 22-8 15-3 6-3 1v-18l12-25 10-19 13-25 10-19 18-35 10-17 8-7z" fill="#08D6F7"/>
<path transform="translate(1125,901)" d="m0 0h14v102l-2 1h-11l-2-2v-99z" fill="#08D6F7"/>
<path transform="translate(650,1008)" d="m0 0 2 1v9l-2 11-5 15-12 24-10 19-11 20-6 11-7 11-12 12-4 1 1-5 18-35 12-22 9-17 8-16 9-17 7-15z" fill="#08D6F7"/>
<path transform="translate(814,807)" d="m0 0h212l1 1v11l-4 1h-61l-3-1-3-6-2-1-125-1-15-1z" fill="#08D6F7"/>
<path transform="translate(462,731)" d="m0 0 7 2 5 5 2 4-1 9-5 5-3 2h-11l-6-5-2-4v-8l7-8z" fill="#08D6F7"/>
<path transform="translate(723,978)" d="m0 0 6 1 6 4 3 5v8l-4 7-8 3-8-1-5-4-2-4v-8l4-7z" fill="#08D6F7"/>
<path transform="translate(211,993)" d="m0 0 7 1 6 4 3 4 1 5-3 8-6 5-2 1-9-1-5-5-3-5v-6l4-6 5-4z" fill="#08D6F7"/>
<path transform="translate(474,1241)" d="m0 0 9 1 6 5 1 2v10l-6 7-2 1h-11l-7-6-1-2v-9l4-6z" fill="#08D6F7"/>
<path transform="translate(1375,940)" d="m0 0h8l6 5 1 8-4 6-7 2-6-2-4-4-1-2v-6l5-6z" fill="#08D6F7"/>
<path transform="translate(1086,940)" d="m0 0 9 1 5 6v6l-6 7h-9l-5-3-2-7 3-7z" fill="#08D6F7"/>
<path transform="translate(327,885)" d="m0 0 1 2-13 23-8 16-9 17-4 8-1-4 4-11 9-19 11-19 8-11z" fill="#08D6F7"/>
</svg>
